<svg width="92" height="18" viewBox="0 0 92 18" fill="none" xmlns="http://www.w3.org/2000/svg">
<path d="M3.48 0.799999H7.56L10.58 17H7.28L6.74 13.58H4.36L3.8 17H0.42L3.48 0.799999ZM6.4 11.44L5.54 5.12L4.68 11.44H6.4ZM11.1766 5.44H14.2966L15.2566 12.82L16.1366 5.44H19.2566L16.8766 17H13.4966L11.1766 5.44ZM22.7945 17.2C22.2345 17.2 21.7479 17.0667 21.3345 16.8C20.9345 16.52 20.6279 16.1667 20.4145 15.74C20.2145 15.3 20.1145 14.8467 20.1145 14.38C20.1145 13.4867 20.3412 12.7533 20.7945 12.18C21.2479 11.6067 21.7879 11.16 22.4145 10.84C23.0545 10.52 23.8745 10.1867 24.8745 9.84V8.68C24.8745 8.34667 24.8212 8.09333 24.7145 7.92C24.6212 7.74667 24.4479 7.66 24.1945 7.66C23.9412 7.66 23.7612 7.74 23.6545 7.9C23.5479 8.06 23.4879 8.28667 23.4745 8.58L23.3945 9.42L20.3545 9.3C20.4079 7.91333 20.7745 6.89333 21.4545 6.24C22.1345 5.57333 23.1479 5.24 24.4945 5.24C25.6279 5.24 26.4945 5.56 27.0945 6.2C27.6945 6.82667 27.9945 7.66667 27.9945 8.72V14.12C27.9945 15.2933 28.0612 16.2533 28.1945 17H25.2745C25.1545 16.1067 25.0679 15.56 25.0145 15.36C24.8545 15.8933 24.5879 16.3333 24.2145 16.68C23.8412 17.0267 23.3679 17.2 22.7945 17.2ZM23.9545 15C24.2879 15 24.5945 14.8067 24.8745 14.42V11.26C24.2745 11.6067 23.8212 11.9733 23.5145 12.36C23.2079 12.7333 23.0545 13.1933 23.0545 13.74C23.0545 14.1267 23.1345 14.4333 23.2945 14.66C23.4545 14.8867 23.6745 15 23.9545 15ZM29.9263 0.799999H33.1663V9.78L36.0063 5.44H39.6663L36.5863 10.18L39.6263 17H36.0663L34.0263 11.5L33.1663 12.6V17H29.9263V0.799999ZM43.1266 17.2C42.5666 17.2 42.0799 17.0667 41.6666 16.8C41.2666 16.52 40.9599 16.1667 40.7466 15.74C40.5466 15.3 40.4466 14.8467 40.4466 14.38C40.4466 13.4867 40.6732 12.7533 41.1266 12.18C41.5799 11.6067 42.1199 11.16 42.7466 10.84C43.3866 10.52 44.2066 10.1867 45.2066 9.84V8.68C45.2066 8.34667 45.1532 8.09333 45.0466 7.92C44.9532 7.74667 44.7799 7.66 44.5266 7.66C44.2732 7.66 44.0932 7.74 43.9866 7.9C43.8799 8.06 43.8199 8.28667 43.8066 8.58L43.7266 9.42L40.6866 9.3C40.7399 7.91333 41.1066 6.89333 41.7866 6.24C42.4666 5.57333 43.4799 5.24 44.8266 5.24C45.9599 5.24 46.8266 5.56 47.4266 6.2C48.0266 6.82667 48.3266 7.66667 48.3266 8.72V14.12C48.3266 15.2933 48.3932 16.2533 48.5266 17H45.6066C45.4866 16.1067 45.3999 15.56 45.3466 15.36C45.1866 15.8933 44.9199 16.3333 44.5466 16.68C44.1732 17.0267 43.6999 17.2 43.1266 17.2ZM44.2866 15C44.6199 15 44.9266 14.8067 45.2066 14.42V11.26C44.6066 11.6067 44.1532 11.9733 43.8466 12.36C43.5399 12.7333 43.3866 13.1933 43.3866 13.74C43.3866 14.1267 43.4666 14.4333 43.6266 14.66C43.7866 14.8867 44.0066 15 44.2866 15ZM52.7583 17.2C51.8916 17.2 51.2249 16.9 50.7583 16.3C50.3049 15.7 50.0783 14.8133 50.0783 13.64V8.86C50.0783 7.75333 50.3049 6.87333 50.7583 6.22C51.2249 5.56667 51.8916 5.24 52.7583 5.24C53.5716 5.24 54.3316 5.54667 55.0383 6.16V0.799999H58.2983V17H55.0383V16.1C54.2783 16.8333 53.5183 17.2 52.7583 17.2ZM54.1783 15.12C54.4316 15.12 54.7183 15.02 55.0383 14.82V7.52C54.7183 7.34667 54.4383 7.26 54.1983 7.26C53.9183 7.26 53.7049 7.38 53.5583 7.62C53.4249 7.84667 53.3583 8.14667 53.3583 8.52V13.84C53.3583 14.2267 53.4249 14.54 53.5583 14.78C53.6916 15.0067 53.8983 15.12 54.1783 15.12ZM64.1169 17.2C62.8502 17.2 61.8569 16.88 61.1369 16.24C60.4302 15.6 60.0769 14.66 60.0769 13.42V9.02C60.0769 7.78 60.4302 6.84 61.1369 6.2C61.8569 5.56 62.8502 5.24 64.1169 5.24C65.3835 5.24 66.3769 5.56667 67.0969 6.22C67.8169 6.86 68.1769 7.79333 68.1769 9.02V13.42C68.1769 14.6467 67.8169 15.5867 67.0969 16.24C66.3769 16.88 65.3835 17.2 64.1169 17.2ZM64.1369 15.04C64.4435 15.04 64.6569 14.9267 64.7769 14.7C64.8969 14.46 64.9569 14.1067 64.9569 13.64V8.8C64.9569 8.33333 64.8969 7.98667 64.7769 7.76C64.6569 7.52 64.4435 7.4 64.1369 7.4C63.8302 7.4 63.6102 7.52 63.4769 7.76C63.3569 8 63.2969 8.34667 63.2969 8.8V13.64C63.2969 14.1067 63.3569 14.46 63.4769 14.7C63.6102 14.9267 63.8302 15.04 64.1369 15.04Z" fill="#8673FF"/>
<path d="M72.0048 2.48H69.2648V0.799999H76.9248V2.48H74.2648V17H72.0048V2.48ZM79.9666 17.16C79.3399 17.16 78.8932 16.9333 78.6266 16.48C78.3599 16.0267 78.2266 15.4667 78.2266 14.8V5.44H80.3666V14.16C80.3666 14.6 80.4332 14.9333 80.5666 15.16C80.6999 15.3733 80.9399 15.48 81.2866 15.48C81.7132 15.48 82.2132 15.24 82.7866 14.76V5.44H84.9266V17H82.7866V15.86C81.8666 16.7267 80.9266 17.16 79.9666 17.16ZM90.1952 17.16C88.5285 17.16 87.6952 16.24 87.6952 14.4V6.86H86.4752V5.44H87.6952V2.06H89.8352V5.44H91.6952V6.86H89.8352V14.26C89.8352 14.7267 89.9085 15.0533 90.0552 15.24C90.2018 15.4267 90.4818 15.52 90.8952 15.52C91.1618 15.52 91.4218 15.5 91.6752 15.46V17.04C91.1418 17.12 90.6485 17.16 90.1952 17.16Z" fill="black"/>
</svg>
