<svg width="80" height="80" viewBox="0 0 80 80" fill="none" xmlns="http://www.w3.org/2000/svg">
<path d="M49.0604 17.0859C47.4065 13.6062 43.8501 11.3579 40.0002 11.3579C36.1504 11.3579 32.5939 13.6062 30.9402 17.0859C30.6607 17.674 30.9107 18.3775 31.4988 18.6569C32.0874 18.9367 32.7905 18.6864 33.0699 18.0983C34.3352 15.4362 37.0555 13.716 40.0002 13.716C42.9449 13.716 45.6652 15.4361 46.9306 18.0983C47.1324 18.5231 47.5553 18.7714 47.9962 18.7714C48.1659 18.7714 48.3382 18.7345 48.5017 18.6569C49.0898 18.3775 49.3399 17.674 49.0604 17.0859Z" fill="#8673FF"/>
<path d="M64.0741 26.0987C61.6786 23.0849 57.7055 21.6994 53.9527 22.57C53.3183 22.7171 52.9233 23.3505 53.0705 23.9849C53.2174 24.6193 53.8511 25.0147 54.4853 24.8671C57.356 24.2019 60.3958 25.2605 62.2282 27.566C64.0604 29.8713 64.4063 33.0712 63.1096 35.7181C62.823 36.3031 63.0648 37.0095 63.6496 37.2959C63.8165 37.3776 63.9934 37.4164 64.1674 37.4164C64.6034 37.4164 65.0224 37.1737 65.2273 36.7557C66.9223 33.2959 66.4698 29.1129 64.0741 26.0987Z" fill="#8673FF"/>
<path d="M26.048 22.5701C22.2947 21.7 18.3218 23.0848 15.9265 26.0987C13.5309 29.1128 13.0784 33.296 14.7734 36.7558C14.9782 37.1736 15.3971 37.4165 15.8332 37.4165C16.0073 37.4165 16.1842 37.3775 16.351 37.296C16.9359 37.0096 17.1776 36.3032 16.8912 35.7183C15.5943 33.0714 15.9404 29.8716 17.7726 27.5662C19.6048 25.2606 22.6447 24.2023 25.5153 24.8672C26.1495 25.0144 26.7833 24.6193 26.9302 23.985C27.0773 23.3506 26.6823 22.7171 26.048 22.5701Z" fill="#8673FF"/>
<path d="M70.7493 23.1207C70.8596 22.4531 70.9153 21.7792 70.9153 21.1067C70.9153 13.8257 64.5813 7.90207 56.7958 7.90207C55.3478 7.90207 53.9269 8.10629 52.558 8.51004C50.1508 4.12532 45.3376 1.34656 40.0002 1.34656C34.6629 1.34656 29.8497 4.12532 27.4425 8.51004C26.0736 8.10629 24.6526 7.90207 23.2047 7.90207C20.5642 7.90207 17.989 8.58801 15.7573 9.88583C15.1945 10.2132 15.0035 10.9349 15.3307 11.4979C15.6581 12.0607 16.3796 12.2513 16.9428 11.9244C18.8148 10.8358 20.9803 10.2604 23.2047 10.2604C24.7297 10.2604 26.2177 10.5285 27.6277 11.0569C28.2113 11.2765 28.8647 11.0022 29.1186 10.433C30.9406 6.34581 35.2118 3.70485 40.0002 3.70485C44.7887 3.70485 49.0598 6.34581 50.8819 10.433C51.1358 11.0022 51.7887 11.276 52.3728 11.0569C53.7828 10.5283 55.2709 10.2604 56.7958 10.2604C63.281 10.2604 68.5571 15.126 68.5571 21.1068C68.5571 21.9551 68.4474 22.8075 68.2312 23.6403C68.0674 24.2704 68.4456 24.914 69.0757 25.0779C74.1197 26.3887 77.6423 30.6811 77.6423 35.5158C77.6423 41.4965 72.3662 46.3621 65.881 46.3621C65.6205 46.3621 65.3615 46.3637 65.1043 46.3653C63.5738 46.3753 62.2141 46.3832 61.0091 46.0787C60.9994 46.076 60.9904 46.0718 60.9805 46.0693C60.5486 45.959 60.153 45.8115 59.7863 45.6232C59.7808 45.6204 59.7752 45.6179 59.7697 45.6149C59.6619 45.5592 59.5575 45.4985 59.4546 45.4354C59.4344 45.4231 59.4141 45.4114 59.3941 45.3987C59.3002 45.3393 59.2088 45.2759 59.1186 45.2101C59.0925 45.191 59.0663 45.1723 59.0405 45.1526C58.953 45.0862 58.8672 45.0164 58.783 44.9434C58.7586 44.9223 58.7344 44.9009 58.7102 44.8792C58.6235 44.8013 58.538 44.7207 58.4544 44.6359C58.438 44.6192 58.4217 44.6017 58.4053 44.5846C58.315 44.4906 58.226 44.3938 58.1391 44.2912C58.0774 44.2182 58.0136 44.1479 57.9486 44.0788C57.9274 44.0562 57.9056 44.0338 57.8841 44.0117C57.8375 43.9638 57.7902 43.917 57.7422 43.871C57.7191 43.8488 57.6961 43.8262 57.6725 43.8045C57.6091 43.7459 57.5446 43.6892 57.4788 43.6338C57.4499 43.6096 57.42 43.5862 57.3906 43.5626C57.346 43.5267 57.3008 43.4913 57.255 43.4568C57.2247 43.434 57.1946 43.4112 57.1638 43.389C57.0913 43.3368 57.0181 43.2859 56.9435 43.2374C56.9338 43.231 56.9236 43.2252 56.9138 43.219C56.8372 43.1699 56.7594 43.1234 56.6808 43.0782C56.6688 43.0713 56.6566 43.0645 56.6446 43.0576C55.1163 42.1973 53.1995 42.0751 51.4345 42.8121C48.6686 43.9676 45.912 44.6713 43.2096 44.9217C42.7951 44.9601 42.3824 44.9881 41.9748 45.0051C41.9679 45.0054 41.9612 45.0054 41.9543 45.0057C41.7551 45.014 41.557 45.0198 41.3604 45.0231C41.1551 45.0262 40.9499 45.0273 40.7454 45.0249L38.5304 44.9988C38.5201 44.9987 38.5094 44.9984 38.4991 44.9982C38.3473 44.9962 38.1951 44.9918 38.0426 44.9867C37.9704 44.984 37.8985 44.9817 37.8254 44.9782C37.7683 44.9757 37.7112 44.9721 37.6541 44.9692C37.4499 44.9582 37.2427 44.9449 37.028 44.9278C37.0274 44.9278 37.0269 44.9278 37.0263 44.9278C34.2963 44.7087 31.4988 43.9849 28.6889 42.7645C27.2095 42.1223 25.5791 42.1059 24.1583 42.6321C24.1408 42.6377 24.1231 42.6413 24.1058 42.6479C23.9392 42.711 23.7776 42.7843 23.6186 42.8624C23.6086 42.8673 23.5986 42.8723 23.5887 42.8773C23.4584 42.9421 23.3305 43.0112 23.2058 43.0856C23.2011 43.0884 23.1964 43.0909 23.1917 43.0937C23.1395 43.1251 23.0881 43.1576 23.037 43.1906C22.9965 43.2165 22.9567 43.2432 22.917 43.2702C22.8687 43.3032 22.8204 43.3362 22.7731 43.3706C22.7064 43.419 22.6408 43.469 22.5759 43.5204C22.5464 43.5438 22.5173 43.5677 22.4883 43.5918C22.4203 43.6481 22.3534 43.7057 22.2879 43.7654C22.2765 43.7759 22.2647 43.7856 22.2534 43.7962C22.1775 43.8665 22.104 43.9399 22.0318 44.0148C22.0118 44.0354 21.9922 44.0563 21.9725 44.0774C21.9022 44.1526 21.8329 44.2293 21.7665 44.3088C21.7645 44.3112 21.7625 44.3134 21.7604 44.3157C21.6826 44.409 21.6031 44.4971 21.5228 44.5831C21.5018 44.6053 21.4811 44.6279 21.46 44.6496C21.3884 44.7239 21.3156 44.7948 21.2418 44.8634C21.2062 44.8963 21.1703 44.9278 21.1343 44.9593C21.092 44.9965 21.049 45.0323 21.0059 45.0678C20.9317 45.1285 20.8567 45.1868 20.7807 45.2421C20.7547 45.2612 20.7286 45.2803 20.7023 45.2987C20.5904 45.377 20.4771 45.4501 20.3618 45.5173C20.3614 45.5174 20.3611 45.5178 20.3606 45.5181C20.3 45.5534 20.2389 45.5871 20.1773 45.6196C20.1603 45.6285 20.1428 45.637 20.1256 45.6457C20.0264 45.6967 19.9257 45.7442 19.8239 45.7882C19.7765 45.8085 19.7287 45.8282 19.6804 45.8474C19.6142 45.8739 19.5473 45.899 19.4798 45.9229C19.404 45.9495 19.3275 45.9754 19.2492 45.9993C17.9939 46.3854 16.5585 46.3765 14.9277 46.3657C14.6604 46.364 14.3912 46.3621 14.1199 46.3621C7.63473 46.3621 2.35861 41.4965 2.35861 35.5158C2.35861 30.6811 5.88144 26.3887 10.9252 25.0779C11.5554 24.9142 11.9335 24.2706 11.7698 23.6403C11.5535 22.8075 11.4438 21.9551 11.4438 21.1068C11.4438 19.0562 12.0674 17.0598 13.2473 15.3337C13.6146 14.796 13.4766 14.0624 12.9391 13.6948C12.4013 13.3274 11.6679 13.4654 11.3002 14.0029C9.85146 16.1227 9.08568 18.5793 9.08568 21.1067C9.08568 21.7792 9.1413 22.4531 9.25162 23.1207C3.75112 25.0098 0 29.9634 0 35.5157C0 42.7966 6.33394 48.7201 14.1195 48.7201C14.3854 48.7201 14.6496 48.722 14.9115 48.7237C15.1662 48.7254 15.4212 48.7272 15.677 48.7272C16.8493 48.7272 18.0268 48.6903 19.1645 48.4525C29.3463 58.5635 30.4588 66.7441 30.4588 69.8223V74.4061C30.4588 75.3636 31.0258 76.7097 33.7269 77.6848C35.4576 78.3097 37.7343 78.6537 40.1377 78.6537C42.5412 78.6537 44.8179 78.3097 46.5485 77.6848C49.2498 76.7097 49.8168 75.3636 49.8168 74.4061V69.8221C49.8168 66.0337 51.1645 61.9072 53.8222 57.5574C54.1617 57.0017 53.9866 56.2761 53.4308 55.9366C52.8751 55.597 52.1494 55.772 51.81 56.328C48.9226 61.0533 47.4587 65.5935 47.4587 69.8221L47.4593 74.3989C47.4361 74.5111 47.0445 75.0328 45.5554 75.5339C44.0954 76.025 42.1715 76.2954 40.1377 76.2954C38.104 76.2954 36.1801 76.025 34.72 75.5339C33.231 75.0328 32.8396 74.5111 32.8168 74.4059V69.8221C32.8168 60.5511 25.7197 51.8383 21.5764 47.5432C21.8447 47.3853 22.1079 47.2053 22.3659 47.0028C22.3736 46.9968 22.3811 46.9909 22.3887 46.985C22.4615 46.9273 22.534 46.8676 22.6061 46.806C22.6189 46.7951 22.6319 46.7843 22.6447 46.7732C22.7103 46.7164 22.7754 46.6576 22.8401 46.5975C22.8564 46.5823 22.8729 46.5676 22.8892 46.5523C22.95 46.495 23.0103 46.4354 23.0703 46.375C23.0883 46.3568 23.1065 46.3393 23.1245 46.321C23.1837 46.2603 23.2425 46.1971 23.3009 46.1332C23.3178 46.1148 23.335 46.0973 23.3517 46.0787C23.4256 45.9965 23.499 45.9121 23.5719 45.8248C23.635 45.749 23.7011 45.6787 23.7683 45.6107C23.7962 45.5824 23.8255 45.5557 23.8544 45.5285C23.8919 45.4932 23.93 45.459 23.9684 45.426C24.0092 45.3914 24.0503 45.3573 24.0926 45.3246C24.1139 45.3082 24.1356 45.2929 24.157 45.277C24.2109 45.2378 24.265 45.1989 24.3214 45.1628C27.4472 48.0653 31.4463 52.5167 33.9054 58.046C34.2477 58.8158 35.0357 59.2341 35.8665 59.0866C36.6871 58.941 37.2993 58.2591 37.3552 57.4283L38.0318 47.3464C38.1899 47.3514 38.3465 47.355 38.5024 47.3567L40.7173 47.3826C40.8168 47.3839 40.916 47.3845 41.0155 47.3845C41.1096 47.3845 41.204 47.3817 41.2982 47.3806C41.3856 47.3795 41.4726 47.379 41.5604 47.377C41.7821 47.3723 42.0043 47.3645 42.2268 47.354C42.2326 47.3537 42.2382 47.3537 42.244 47.3534L42.9201 57.4281C42.9759 58.2586 43.5878 58.9403 44.4082 59.0863C45.2403 59.2344 46.0273 58.8158 46.37 58.0458C48.7931 52.5967 52.7177 48.194 55.7956 45.3104C55.8008 45.3142 55.8059 45.3178 55.8109 45.3217C55.8927 45.3818 55.9705 45.447 56.0459 45.5151C56.0625 45.5301 56.0797 45.544 56.096 45.5595C56.1808 45.6395 56.2622 45.7237 56.3383 45.8139C56.4194 45.9098 56.5014 46.0023 56.5841 46.092C56.5994 46.1085 56.6152 46.1242 56.6305 46.1406C56.7002 46.2151 56.77 46.2881 56.8406 46.3582C56.8538 46.3712 56.8671 46.3835 56.8802 46.3964C56.9558 46.4706 57.0319 46.5428 57.1086 46.6125C57.1167 46.6198 57.1252 46.627 57.1333 46.6343C57.2186 46.711 57.3046 46.785 57.3911 46.8562C57.3917 46.8567 57.3925 46.8573 57.3931 46.8578C57.7788 47.175 58.1764 47.4403 58.5844 47.6593C57.5619 48.725 56.3402 50.0801 55.0967 51.647C54.6919 52.1572 54.7774 52.8989 55.2874 53.3036C55.7972 53.7083 56.5391 53.623 56.9439 53.113C58.47 51.1897 59.9627 49.5989 61.0627 48.4989C62.3891 48.74 63.7635 48.7317 65.1182 48.7231C65.3705 48.7215 65.6248 48.72 65.8805 48.72C73.6661 48.72 80 42.7965 80 35.5155C80.0005 29.9634 76.2494 25.0098 70.7493 23.1207ZM35.1421 55.19C32.9244 50.9494 29.9533 47.4111 27.3142 44.7729C27.4655 44.8165 27.6117 44.8676 27.7492 44.9273C30.4064 46.0812 33.0635 46.827 35.6808 47.1587L35.1421 55.19ZM45.1334 55.1902L44.5931 47.1384C47.1557 46.7898 49.7497 46.0712 52.343 44.9879C52.5306 44.9095 52.7309 44.8467 52.938 44.7978C50.3169 47.4221 47.3492 50.9545 45.1334 55.1902Z" fill="#8673FF"/>
</svg>
