<svg width="80" height="80" viewBox="0 0 80 80" fill="none" xmlns="http://www.w3.org/2000/svg">
<g clip-path="url(#clip0)">
<path d="M77.1549 27.5981C76.0857 27.2289 74.9432 27.2943 73.9248 27.7781C70.8151 25.0702 66.6063 27.4626 66.7825 31.0808L67.2594 40.8583L66.1332 41.558C66.0935 40.8474 65.8872 40.1387 65.5043 39.491C64.2404 37.353 61.5405 36.6203 59.357 37.8231L47.132 44.5552C45.4753 45.4676 44.254 46.963 43.6923 48.7661L42.5493 52.436C41.7059 55.1442 41.1948 57.9469 41.0241 60.7813C40.6467 60.8912 40.3003 61.0721 39.9986 61.3087C39.6969 61.0721 39.3504 60.8912 38.973 60.7813C38.8026 57.947 38.2913 55.1445 37.4479 52.4361L36.305 48.7662C35.7433 46.963 34.5217 45.4676 32.8651 44.5554L20.6403 37.8233C18.4569 36.6209 15.7565 37.3533 14.4929 39.4912C14.11 40.139 13.9037 40.8477 13.8641 41.5583L12.7377 40.8585L13.2145 31.0811C13.3311 28.6952 11.4958 26.6944 9.11841 26.6126C8.05923 26.5767 6.94723 27.0168 6.07303 27.7784C5.05431 27.2943 3.91153 27.2287 2.84235 27.5982C0.695533 28.3396 -0.490527 30.7424 0.198359 32.9545L2.9689 41.8506C3.67263 44.1101 5.11478 46.1238 7.01769 47.5119L16.968 54.9654C18.763 56.3101 20.2767 57.9572 21.4671 59.8614C21.6852 60.2101 21.8765 60.5788 22.0401 60.9645C21.0214 61.458 20.3153 62.4993 20.3153 63.7053V76.9532C20.3153 78.6332 21.6821 80 23.3621 80H38.1238C38.831 80 39.4811 79.7556 39.9988 79.3497C40.5164 79.7556 41.1666 80 41.8737 80H46.5202C47.1675 80 47.692 79.4753 47.692 78.8282C47.692 78.181 47.1675 77.6563 46.5202 77.6563H41.8737C41.4926 77.6563 41.1706 77.3343 41.1706 76.9532V68.4447H57.3386V76.9532C57.3386 77.3343 57.0166 77.6563 56.6355 77.6563H51.9889C51.3416 77.6563 50.8171 78.181 50.8171 78.8282C50.8171 79.4753 51.3416 80 51.9889 80H56.6355C58.3154 80 59.6823 78.6332 59.6823 76.9532C59.6823 75.3386 59.6823 65.3901 59.6823 63.7053C59.6823 62.4994 58.9762 61.458 57.9575 60.9645C58.1211 60.5788 58.3123 60.2101 58.5303 59.8614C59.721 57.957 61.2349 56.3099 63.0297 54.9654L72.9675 47.5208C74.8823 46.1241 76.3244 44.1104 77.0285 41.8506L79.799 32.9545C80.4878 30.7422 79.3017 28.3395 77.1549 27.5981ZM9.03779 28.9549C10.1039 28.9915 10.9263 29.8849 10.8734 30.9667L10.554 37.5151L8.33062 30.3763C8.22719 30.0439 8.06579 29.6821 7.85986 29.3558C8.23938 29.0958 8.66265 28.9434 9.03779 28.9549ZM18.3728 53.0897L8.41078 45.6272C6.89957 44.5248 5.76164 42.9361 5.2065 41.1536L2.43595 32.2576C2.11971 31.242 2.64501 30.1457 3.60717 29.8135C4.65354 29.4524 5.7707 30.0396 6.09272 31.0733C6.40209 32.0665 8.70218 39.4512 9.01154 40.4446C9.24904 41.2074 9.8523 41.8784 10.2904 42.0975C10.2904 42.0975 12.7058 43.5451 20.0681 48.3203C20.6109 48.6725 21.3368 48.5178 21.6888 47.9748C22.041 47.4319 21.8865 46.7061 21.3434 46.3539C16.5827 43.2662 17.0799 43.5961 16.9821 43.5118C16.1593 42.8026 15.9609 41.6133 16.5102 40.6838C17.1254 39.6435 18.4424 39.2885 19.5094 39.8763L31.7343 46.6085C32.8579 47.2272 33.6863 48.2411 34.0669 49.4632L35.2099 53.1331C35.9709 55.5768 36.4433 58.103 36.6175 60.6587H24.4342C24.1794 59.9375 23.8513 59.2543 23.4541 58.6191C22.1099 56.4686 20.4004 54.6084 18.3728 53.0897ZM38.8266 76.9532C38.8266 77.3343 38.5046 77.6563 38.1235 77.6563H23.3619C22.9808 77.6563 22.6588 77.3343 22.6588 76.9532V68.4447H38.8268V76.9532H38.8266ZM38.8266 66.101H22.6588V63.7053C22.6588 63.3242 22.9808 63.0022 23.3619 63.0022H38.1237C38.5048 63.0022 38.8268 63.3242 38.8268 63.7053V66.101H38.8266ZM72.1371 29.3558C71.7341 29.9944 71.8569 29.7641 69.4428 37.5156L69.1234 30.9667C69.0536 29.5361 70.5843 28.2918 72.1371 29.3558ZM57.3383 66.101H41.1703V63.7053C41.1703 63.3242 41.4923 63.0022 41.8734 63.0022H56.6352C57.0163 63.0022 57.3383 63.3242 57.3383 63.7053V66.101ZM77.5611 32.2576L74.7907 41.1538C74.2353 42.9364 73.0974 44.5252 71.5741 45.6363L61.6242 53.0897C59.597 54.6081 57.8875 56.4685 56.5428 58.6191C56.1457 59.2542 55.8175 59.9375 55.5629 60.6585H43.3795C43.554 58.1027 44.0262 55.5766 44.7872 53.133L45.9302 49.4631C46.3108 48.2409 47.139 47.227 48.2628 46.6083L60.4877 39.8762C61.5549 39.2884 62.8719 39.6435 63.4869 40.6838C63.9779 41.5147 63.9498 42.6158 62.9709 43.5539L58.6539 46.3539C58.1108 46.7061 57.9562 47.4317 58.3084 47.9748C58.6603 48.5175 59.3857 48.6728 59.9291 48.3203C66.4843 44.0687 64.3529 45.4238 69.7062 42.0978H69.706C69.706 42.0978 69.7065 42.0975 69.7067 42.0973L69.707 42.0972C70.3176 41.718 70.7716 41.131 70.9857 40.4446L73.9044 31.0731C74.2298 30.0294 75.3523 29.4547 76.3901 29.8133C77.3521 30.1457 77.8774 31.242 77.5611 32.2576Z" fill="#8673FF"/>
<path d="M55.8156 17.596C56.4629 17.596 56.9874 17.0713 56.9874 16.4241V11.2627C56.9874 10.2654 56.7243 9.28166 56.227 8.41716C56.2257 8.41512 56.2249 8.41278 56.2237 8.41075C55.7951 7.66796 55.1612 7.07641 54.3908 6.70017L41.2802 0.297394C40.4665 -0.0997822 39.5329 -0.0997822 38.7195 0.297394L25.6092 6.70017C24.8386 7.07641 24.2049 7.66796 23.7763 8.41075C23.776 8.41122 23.7759 8.41184 23.7755 8.41247C23.2765 9.27791 23.0128 10.2634 23.0128 11.2625V26.5251C23.0128 27.6319 23.6554 28.6609 24.6501 29.1469L36.8756 35.1175C38.8337 36.0738 41.144 36.0848 43.1245 35.1175L55.3503 29.1469C56.3448 28.6611 56.9876 27.6319 56.9876 26.5251V21.8927C56.9876 21.2455 56.463 20.7209 55.8157 20.7209C55.1684 20.7209 54.6439 21.2455 54.6439 21.8927V26.5252C54.6439 26.743 54.5173 26.9455 54.3217 27.0411L42.0961 33.0117C41.8011 33.1557 41.4907 33.2689 41.1719 33.3496V17.156L48.5036 13.5753L54.5792 10.6082C54.6218 10.823 54.6437 11.0424 54.6437 11.2629V16.4241C54.6437 17.0713 55.1682 17.596 55.8156 17.596ZM38.8281 33.3494C38.5093 33.2688 38.1989 33.1557 37.9039 33.0116L25.6785 27.041C25.4827 26.9454 25.3561 26.7429 25.3561 26.5252V11.2627C25.3561 11.0422 25.378 10.823 25.4205 10.608L38.8281 17.1558V33.3494ZM50.0154 10.2287L39.9999 15.1199L26.8547 8.70027L39.7477 2.40358C39.9077 2.32546 40.0915 2.32546 40.2519 2.40358L53.1453 8.70027L50.0154 10.2287Z" fill="#8673FF"/>
</g>
<defs>
<clipPath id="clip0">
<rect width="80" height="80" fill="white"/>
</clipPath>
</defs>
</svg>
