<svg width="36" height="33" viewBox="0 0 36 33" fill="none" xmlns="http://www.w3.org/2000/svg">
<path d="M14.4391 33C16.7894 33 18.6948 31.2535 18.6948 29.099C18.6948 26.9445 16.7894 25.1979 14.4391 25.1979C12.0887 25.1979 10.1833 26.9445 10.1833 29.099C10.1833 31.2535 12.0887 33 14.4391 33Z" fill="#8673FF"/>
<path d="M26.8589 25.1979C24.5085 25.1979 22.6031 26.9445 22.6031 29.099C22.6031 31.2535 24.5085 33.0001 26.8589 33.0001C29.2092 33.0001 31.1146 31.2535 31.1146 29.099C31.1146 26.9445 29.2092 25.1979 26.8589 25.1979Z" fill="#8673FF"/>
<path d="M34.111 21.2172H11.9204L11.4862 18.9084H29.725C30.2615 18.9099 30.7442 18.6096 30.9409 18.1521L35.2834 8.12073C35.5473 7.50714 35.2185 6.81363 34.5491 6.57183C34.3958 6.5164 34.2323 6.48818 34.0675 6.48864H9.22802L8.1858 0.995291C8.07876 0.414437 7.5256 -0.00812279 6.88303 0.000118482H1.88907C1.16958 0.000118482 0.586304 0.53479 0.586304 1.19433C0.586304 1.85386 1.16958 2.38853 1.88907 2.38853H5.79739L9.532 22.6104C9.63904 23.1913 10.1922 23.6138 10.8348 23.6056H34.111C34.8304 23.6056 35.4137 23.0709 35.4137 22.4114C35.4137 21.7519 34.8304 21.2172 34.111 21.2172Z" fill="#8673FF"/>
</svg>
