<svg width="80" height="80" viewBox="0 0 80 80" fill="none" xmlns="http://www.w3.org/2000/svg">
<g clip-path="url(#clip0)">
<path d="M62.8075 30.0466C62.2159 29.7961 61.5348 30.0767 61.2865 30.6736L53.8649 48.5102C53.299 49.8703 55.4263 50.8146 56.0076 49.4172L63.4293 31.5807C63.6775 30.9838 63.3991 30.2971 62.8075 30.0466Z" fill="#8673FF"/>
<path d="M55.0952 29.9551C53.3236 29.9551 51.8824 31.5591 51.8824 33.5307C51.8824 35.5023 53.3238 37.1063 55.0952 37.1063C56.8666 37.1063 58.308 35.5023 58.308 33.5307C58.308 31.5591 56.8668 29.9551 55.0952 29.9551ZM55.0952 34.7627C54.6133 34.7627 54.2061 34.1987 54.2061 33.5309C54.2061 32.863 54.6133 32.299 55.0952 32.299C55.5771 32.299 55.9843 32.863 55.9843 33.5309C55.9843 34.1987 55.5773 34.7627 55.0952 34.7627Z" fill="#8673FF"/>
<path d="M58.9859 46.5599C58.9859 48.5316 60.4272 50.1355 62.1987 50.1355C63.9701 50.1355 65.4113 48.5314 65.4113 46.5599C65.4113 44.5883 63.9701 42.9843 62.1987 42.9843C60.4272 42.9843 58.9859 44.5883 58.9859 46.5599ZM63.0876 46.5599C63.0876 47.2277 62.6804 47.7918 62.1987 47.7918C61.7167 47.7918 61.3096 47.2277 61.3096 46.5599C61.3096 45.8921 61.7167 45.328 62.1987 45.328C62.6804 45.328 63.0876 45.8921 63.0876 46.5599Z" fill="#8673FF"/>
<path d="M19.0955 50.7229C19.7372 50.7229 20.2574 50.1982 20.2574 49.5511V30.5397C20.2574 29.8925 19.7372 29.3678 19.0955 29.3678H15.0667C14.425 29.3678 13.9048 29.8925 13.9048 30.5397C13.9048 31.1869 14.425 31.7115 15.0667 31.7115H17.9335V49.5511C17.9337 50.1982 18.4539 50.7229 19.0955 50.7229Z" fill="#8673FF"/>
<path d="M22.7391 35.6494V44.4414C22.7391 48.1191 25.7054 51.111 29.3517 51.111C32.9979 51.111 35.9642 48.1191 35.9642 44.4414V35.6494C35.9642 31.9717 32.9979 28.9799 29.3517 28.9799C25.7054 28.9799 22.7391 31.9719 22.7391 35.6494ZM25.0629 35.6494C25.0629 33.2641 26.9867 31.3236 29.3517 31.3236C31.7166 31.3236 33.6405 33.2641 33.6405 35.6494V44.4414C33.6405 46.8267 31.7166 48.7672 29.3517 48.7672C26.9867 48.7672 25.0629 46.8267 25.0629 44.4414V35.6494Z" fill="#8673FF"/>
<path d="M37.2639 35.6494V44.4414C37.2639 48.1191 40.2302 51.111 43.8764 51.111C47.5227 51.111 50.489 48.1191 50.489 44.4414V35.6494C50.489 31.9717 47.5227 28.9799 43.8764 28.9799C40.2302 28.9799 37.2639 31.9719 37.2639 35.6494ZM48.1651 35.6494V44.4414C48.1651 46.8267 46.2412 48.7672 43.8763 48.7672C41.5114 48.7672 39.5875 46.8267 39.5875 44.4414V35.6494C39.5875 33.2641 41.5114 31.3236 43.8763 31.3236C46.2412 31.3236 48.1651 33.2642 48.1651 35.6494Z" fill="#8673FF"/>
<path d="M67.7008 11.761C60.2102 4.20604 50.2512 0.0454102 39.6581 0.0454102C29.0651 0.0454102 19.1061 4.20604 11.6155 11.761C4.12522 19.316 0 29.361 0 40.0454C0 50.2565 3.81462 59.9774 10.741 67.4176C17.6353 74.8232 26.9497 79.2746 36.9682 79.952C36.9945 79.9537 37.0209 79.9546 37.047 79.9546C37.6534 79.9546 38.164 79.4801 38.2052 78.861C38.2481 78.2153 37.7638 77.6567 37.1236 77.6134C27.6936 76.9759 18.9258 72.7851 12.435 65.8132C5.91464 58.8093 2.32372 49.6582 2.32372 40.0454C2.32372 29.987 6.20712 20.5307 13.2587 13.4184C20.3102 6.30603 29.6857 2.38916 39.6581 2.38916C49.6304 2.38916 59.006 6.30603 66.0574 13.4184C73.1091 20.5307 76.9925 29.987 76.9925 40.0454C76.9925 49.501 73.5035 58.5415 67.168 65.5015C60.8713 72.4188 52.3181 76.6951 43.0839 77.5423C42.4449 77.6009 41.9739 78.1709 42.0322 78.8154C42.0901 79.4599 42.654 79.9343 43.2944 79.8764C53.105 78.9763 62.1912 74.4342 68.8795 67.0867C75.6098 59.6931 79.3162 50.0896 79.3162 40.0454C79.3162 29.361 75.191 19.3162 67.7008 11.761Z" fill="#8673FF"/>
<path d="M26.6318 20.8847C25.8086 22.0988 27.6643 23.5138 28.5498 22.2078C29.1332 21.3475 29.7809 20.5625 30.4759 19.8596C30.9623 20.8485 31.6791 21.7208 32.6571 22.3452C33.9264 23.1557 35.1693 21.1753 33.8999 20.3649C33.1452 19.883 32.627 19.1269 32.3218 18.2657C35.059 16.2652 38.2337 15.411 41.1027 16.0685C42.5674 16.4058 43.0825 14.1188 41.6176 13.783C38.3158 13.0261 34.8624 13.89 32.0148 15.6464C32.085 14.8949 32.3111 14.2142 32.6383 13.5457C34.4276 10.0892 38.9141 9.21706 42.2216 10.3716C46.1387 11.7424 48.6895 15.1838 49.9434 19.0613C46.7527 18.0721 43.2227 19.6446 40.4843 20.8647C38.7107 21.7039 39.8482 23.4928 41.4234 23.0086C44.6664 21.5635 48.3419 19.9255 50.9495 22.2871C51.7538 23.0152 53.059 22.2814 52.8694 21.2075C52.3501 18.2985 51.2714 15.5966 49.7496 13.3944C47.9838 10.8392 45.64 9.02706 42.9707 8.15315C40.7193 7.36987 38.2451 7.3255 36.0023 8.02815C33.5884 8.78456 31.66 10.3633 30.5719 12.4738C29.8063 13.9764 29.5276 15.6532 29.7388 17.3374C28.5878 18.3524 27.5415 19.5432 26.6318 20.8847Z" fill="#8673FF"/>
<path d="M34.5794 71.1383C39.2296 73.5553 45.9669 72.7736 48.624 67.7769C49.5068 66.1167 49.8441 64.3692 49.627 62.7091C50.7582 61.7036 51.7879 60.5285 52.6846 59.2063C53.5329 57.9556 51.6152 56.633 50.7666 57.883C50.1836 58.7425 49.5366 59.5269 48.8422 60.2292C47.9518 58.5438 46.426 57.2856 44.4736 56.6484C41.3073 55.6149 38.5432 56.7586 36.1047 57.7677C33.2391 58.9536 30.9758 59.8902 28.3133 57.758C27.4834 57.0934 26.2444 57.8564 26.4513 58.9045C27.2547 62.976 29.3171 68.4031 34.5794 71.1383ZM36.9866 59.936C39.257 58.9966 41.4015 58.1094 43.7582 58.8783C45.304 59.3828 46.4586 60.4205 47.0091 61.8002C47.0105 61.8036 47.0116 61.8072 47.013 61.8108C44.2713 63.8211 41.0888 64.6811 38.2135 64.0222C36.7488 63.6863 36.2336 65.9719 37.6986 66.3077C41.0049 67.0655 44.4642 66.1978 47.3143 64.4361C47.2004 65.2245 46.9544 65.9688 46.576 66.6689C44.5653 70.4499 39.3 70.9552 35.6437 69.0547C32.2125 67.2713 30.3755 64.0378 29.3933 61.0147C32.1412 61.9408 34.6823 60.8895 36.9866 59.936Z" fill="#8673FF"/>
</g>
<defs>
<clipPath id="clip0">
<rect width="80" height="80" fill="white"/>
</clipPath>
</defs>
</svg>
