<svg width="80" height="80" viewBox="0 0 80 80" fill="none" xmlns="http://www.w3.org/2000/svg">
<path d="M70.6362 2.84814H9.36371C7.63622 2.84996 5.98 3.53701 4.75848 4.75854C3.53695 5.98006 2.8499 7.63628 2.84808 9.36377V53.8313C2.8499 55.5588 3.53693 57.2151 4.75844 58.4367C5.97994 59.6584 7.63616 60.3455 9.36371 60.3475H29.0231V70.4375H22.8356C22.6919 70.4374 22.5497 70.4657 22.4169 70.5206C22.2842 70.5756 22.1636 70.6561 22.062 70.7577C21.9604 70.8593 21.8799 70.9799 21.8249 71.1126C21.77 71.2454 21.7417 71.3876 21.7418 71.5313V76.0569C21.7417 76.2006 21.77 76.3428 21.8249 76.4756C21.8799 76.6083 21.9604 76.7289 22.062 76.8305C22.1636 76.9321 22.2842 77.0126 22.4169 77.0676C22.5497 77.1225 22.6919 77.1507 22.8356 77.1507H57.1643C57.308 77.1507 57.4502 77.1225 57.583 77.0676C57.7157 77.0126 57.8363 76.9321 57.9379 76.8305C58.0395 76.7289 58.12 76.6083 58.175 76.4756C58.2299 76.3428 58.2582 76.2006 58.2581 76.0569V71.5313C58.2582 71.3876 58.2299 71.2454 58.175 71.1126C58.12 70.9799 58.0395 70.8593 57.9379 70.7577C57.8363 70.6561 57.7157 70.5756 57.583 70.5206C57.4502 70.4657 57.308 70.4374 57.1643 70.4375H50.9768V60.3475H70.6368C72.3643 60.3454 74.0203 59.6581 75.2417 58.4365C76.4631 57.2149 77.15 55.5587 77.1518 53.8313V9.36377C77.15 7.63628 76.463 5.98006 75.2414 4.75854C74.0199 3.53701 72.3637 2.84996 70.6362 2.84814ZM56.0706 74.9644H23.9293V72.625H56.0706V74.9644ZM48.7887 70.4375H31.2106V60.3475H48.7887V70.4375ZM74.9643 53.8313C74.9632 54.9789 74.5068 56.0791 73.6954 56.8907C72.884 57.7022 71.7838 58.1587 70.6362 58.16H9.36371C8.21612 58.1587 7.11591 57.7022 6.3045 56.8907C5.49309 56.0791 5.03674 54.9789 5.03558 53.8313V9.36377C5.03674 8.21624 5.49311 7.11603 6.30454 6.3046C7.11597 5.49317 8.21617 5.0368 9.36371 5.03564H70.6362C71.7837 5.0368 72.8839 5.49317 73.6954 6.3046C74.5068 7.11603 74.9632 8.21624 74.9643 9.36377V53.8313Z" fill="#8673FF"/>
<path d="M69.1437 9.76257H10.8562C10.7125 9.76249 10.5703 9.79073 10.4375 9.84566C10.3048 9.9006 10.1842 9.98116 10.0826 10.0827C9.98104 10.1843 9.90048 10.3049 9.84554 10.4377C9.7906 10.5704 9.76237 10.7127 9.76245 10.8563V52.3388C9.76237 52.4825 9.7906 52.6247 9.84554 52.7575C9.90048 52.8902 9.98104 53.0108 10.0826 53.1124C10.1842 53.214 10.3048 53.2945 10.4375 53.3495C10.5703 53.4044 10.7125 53.4327 10.8562 53.4326H69.1437C69.2874 53.4327 69.4296 53.4044 69.5624 53.3495C69.6951 53.2945 69.8157 53.214 69.9173 53.1124C70.0189 53.0108 70.0994 52.8902 70.1544 52.7575C70.2093 52.6247 70.2375 52.4825 70.2374 52.3388V10.8563C70.2375 10.7127 70.2093 10.5704 70.1544 10.4377C70.0994 10.3049 70.0189 10.1843 69.9173 10.0827C69.8157 9.98116 69.6951 9.9006 69.5624 9.84566C69.4296 9.79073 69.2874 9.76249 69.1437 9.76257ZM68.0499 51.2451H11.95V11.9501H68.0499V51.2451Z" fill="#8673FF"/>
<path d="M40 46.2819C42.919 46.2819 45.7724 45.4163 48.1995 43.7946C50.6266 42.1729 52.5182 39.8679 53.6353 37.1711C54.7523 34.4743 55.0446 31.5068 54.4751 28.6439C53.9057 25.781 52.5 23.1512 50.436 21.0871C48.3719 19.0231 45.7422 17.6175 42.8793 17.048C40.0163 16.4785 37.0489 16.7708 34.352 17.8879C31.6552 19.0049 29.3502 20.8966 27.7285 23.3236C26.1068 25.7507 25.2412 28.6042 25.2412 31.5232C25.2457 35.4361 26.802 39.1874 29.5689 41.9542C32.3357 44.7211 36.0871 46.2774 40 46.2819ZM28.1481 35.6757C29.8954 36.6814 31.8032 37.378 33.7875 37.735C34.1453 39.7195 34.8431 41.6273 35.85 43.3744C34.0726 42.7481 32.4581 41.7314 31.1253 40.3992C29.7924 39.0669 28.7751 37.4528 28.1481 35.6757ZM33.4162 27.6575C33.1254 30.2262 33.1254 32.8195 33.4162 35.3882C29.7687 34.4994 27.4287 32.9575 27.4287 31.5232C27.4287 30.0888 29.7687 28.5463 33.4162 27.6575ZM40 18.9519C41.4375 18.9519 42.9762 21.2919 43.865 24.9388C41.2965 24.6488 38.7035 24.6488 36.135 24.9388C37.0237 21.2919 38.5656 18.9519 40 18.9519ZM40 26.9088C41.4404 26.9089 42.879 27.0134 44.3044 27.2213C44.7177 30.0758 44.7177 32.9749 44.3044 35.8294C41.4496 36.2427 38.5503 36.2427 35.6956 35.8294C35.2823 32.9749 35.2823 30.0758 35.6956 27.2213C37.121 27.0134 38.5595 26.9089 40 26.9088ZM52.5712 31.5232C52.5712 32.9607 50.2312 34.4994 46.5837 35.3882C46.7309 34.1051 46.8037 32.8146 46.8019 31.5232C46.8034 30.2315 46.7306 28.9408 46.5837 27.6575C50.2312 28.5463 52.5712 30.0882 52.5712 31.5232ZM40 44.0944C38.5625 44.0944 37.0237 41.7538 36.135 38.1069C38.7035 38.3969 41.2965 38.3969 43.865 38.1069C42.9762 41.7538 41.4375 44.0944 40 44.0944ZM44.1525 43.375C45.1594 41.6279 45.8571 39.7201 46.215 37.7357C48.1992 37.3787 50.107 36.682 51.8544 35.6763C51.2273 37.4534 50.21 39.0675 48.8772 40.3998C47.5443 41.7321 45.9299 42.7487 44.1525 43.375ZM51.8519 27.37C50.1047 26.3632 48.1969 25.6655 46.2125 25.3075C45.8546 23.3233 45.1569 21.4157 44.15 19.6688C45.9276 20.2954 47.5422 21.3124 48.8751 22.6452C50.2079 23.9779 51.2251 25.5924 51.8519 27.37ZM35.8475 19.6719C34.8406 21.4188 34.1428 23.3264 33.785 25.3107C31.8005 25.6686 29.8927 26.3664 28.1456 27.3732C28.7723 25.5956 29.7895 23.981 31.1224 22.6483C32.4552 21.3156 34.0698 20.2985 35.8475 19.6719Z" fill="#8673FF"/>
</svg>
