<svg width="80" height="80" viewBox="0 0 80 80" fill="none" xmlns="http://www.w3.org/2000/svg">
<path d="M66.6431 45.4137C67.8126 45.4108 68.9373 44.9638 69.7898 44.1632C70.6422 43.3626 71.1588 42.2681 71.235 41.1011C71.2442 40.9578 71.225 40.814 71.1786 40.6781C71.1322 40.5422 71.0595 40.4167 70.9646 40.3089C70.8697 40.201 70.7545 40.1129 70.6256 40.0496C70.4966 39.9863 70.3565 39.949 70.2132 39.9399C70.0694 39.9289 69.925 39.9469 69.7883 39.9926C69.6516 40.0383 69.5254 40.1109 69.4172 40.2061C69.309 40.3014 69.2209 40.4173 69.1582 40.547C69.0955 40.6768 69.0593 40.8178 69.0519 40.9618C69.0126 41.5745 68.7419 42.1495 68.2947 42.5702C67.8475 42.991 67.2572 43.2261 66.6431 43.228C66.3531 43.228 66.0749 43.3433 65.8697 43.5484C65.6646 43.7535 65.5494 44.0317 65.5494 44.3218C65.5494 44.6119 65.6646 44.8901 65.8697 45.0952C66.0749 45.3003 66.3531 45.4155 66.6431 45.4155V45.4137Z" fill="#8673FF"/>
<path d="M36.1756 36.8356H41.455C41.7451 36.8356 42.0233 36.7203 42.2284 36.5152C42.4335 36.3101 42.5488 36.0319 42.5488 35.7418C42.5488 35.4517 42.4335 35.1735 42.2284 34.9684C42.0233 34.7633 41.7451 34.6481 41.455 34.6481H36.1756C35.8855 34.6481 35.6073 34.7633 35.4022 34.9684C35.1971 35.1735 35.0819 35.4517 35.0819 35.7418C35.0819 36.0319 35.1971 36.3101 35.4022 36.5152C35.6073 36.7203 35.8855 36.8356 36.1756 36.8356Z" fill="#8673FF"/>
<path d="M36.9925 47.363H34.1175C33.8274 47.363 33.5492 47.4783 33.3441 47.6834C33.139 47.8885 33.0237 48.1667 33.0237 48.4568C33.0237 48.7469 33.139 49.0251 33.3441 49.2302C33.5492 49.4353 33.8274 49.5505 34.1175 49.5505H36.9925C37.2826 49.5505 37.5608 49.4353 37.7659 49.2302C37.971 49.0251 38.0862 48.7469 38.0862 48.4568C38.0862 48.1667 37.971 47.8885 37.7659 47.6834C37.5608 47.4783 37.2826 47.363 36.9925 47.363Z" fill="#8673FF"/>
<path d="M75.9375 51.1981H63.7438C64.1789 50.4337 64.6869 49.713 65.2606 49.0462C65.5388 49.0919 65.8194 49.1294 66.1044 49.1475C66.285 49.1588 66.465 49.165 66.6431 49.165C68.766 49.1605 70.8079 48.3496 72.3554 46.8964C73.903 45.4433 74.8407 43.4565 74.9788 41.3381C75.0211 40.6722 74.9825 40.0035 74.8638 39.3469C75.7079 38.4739 76.334 37.4139 76.6913 36.2533C77.0485 35.0927 77.1268 33.8641 76.9197 32.6675C76.7126 31.4709 76.2261 30.3401 75.4996 29.3671C74.7731 28.394 73.8272 27.6061 72.7388 27.0675C72.4577 25.511 71.7041 24.0789 70.5803 22.9658C69.4566 21.8528 68.0173 21.1129 66.4581 20.8469C65.8484 19.4286 64.8577 18.207 63.5959 17.3176C62.3341 16.4282 60.8505 15.9057 59.3099 15.8081C57.7692 15.7106 56.2316 16.0417 54.8677 16.7649C53.5038 17.4881 52.3669 18.575 51.5831 19.905C49.9884 19.9746 48.4548 20.5381 47.1944 21.5175C46.4622 20.7942 45.5522 20.2768 44.5563 20.0175C44.2681 19.9431 43.9744 19.8881 43.6813 19.8219C43.79 19.5719 43.8988 19.3263 43.9938 19.0831C45.5906 15.0938 46.1681 10.3425 43.6563 9.33312C42.6631 8.93812 41.5438 9.2925 40.3944 10.3281C40.0413 7.26562 39.115 2.96875 36.7031 2.96875C34.2913 2.96875 33.3594 7.27 33.0056 10.3287C31.8569 9.29437 30.7394 8.94063 29.7475 9.33438C28.9244 9.66313 27.9613 10.6119 28.0488 13.2625C28.1757 15.2623 28.636 17.2269 29.4106 19.075C29.5075 19.3213 29.6169 19.5694 29.7263 19.8181C29.4369 19.8844 29.145 19.9394 28.8581 20.0131C28.7075 20.0519 28.5644 20.11 28.4206 20.16C27.78 19.0484 26.8855 18.1041 25.8101 17.4043C24.7347 16.7045 23.509 16.2692 22.2331 16.1337C20.9864 15.9171 19.7062 15.9956 18.4953 16.3631C17.2845 16.7307 16.1766 17.3769 15.2606 18.25C13.8089 19.6401 12.8774 21.4858 12.6213 23.4794C11.3908 23.4786 10.2045 23.9381 9.29563 24.7675C7.67063 26.2906 7.4 28.6425 7.40688 30.0756C6.65007 30.5279 6.01926 31.1633 5.57253 31.9234C5.12581 32.6835 4.87755 33.5438 4.85063 34.425C4.796 35.8559 5.28248 37.2548 6.21313 38.3431C5.33648 39.5789 4.90051 41.0733 4.9752 42.5866C5.04989 44.0998 5.63092 45.5441 6.625 46.6875C6.07235 48.0026 6.04839 49.4802 6.55813 50.8125C6.61686 50.944 6.68258 51.0723 6.755 51.1969H4.0625C3.77242 51.1969 3.49422 51.3121 3.2891 51.5172C3.08398 51.7223 2.96875 52.0005 2.96875 52.2906V75.9375C2.96875 76.2276 3.08398 76.5058 3.2891 76.7109C3.49422 76.916 3.77242 77.0312 4.0625 77.0312H75.9375C76.2276 77.0312 76.5058 76.916 76.7109 76.7109C76.916 76.5058 77.0313 76.2276 77.0313 75.9375V52.2919C77.0313 52.0018 76.916 51.7236 76.7109 51.5185C76.5058 51.3134 76.2276 51.1981 75.9375 51.1981ZM5.15563 61.2669H74.8431V66.9619H5.15563V61.2669ZM61.2856 51.1981H58.5856C58.9889 50.1919 59.4682 49.2178 60.0194 48.2844C60.6197 48.1138 61.1989 47.8765 61.7463 47.5769C62.1461 47.8654 62.5707 48.118 63.015 48.3319C62.3372 49.2224 61.7574 50.1833 61.2856 51.1981ZM44.9494 47.0494C45.9416 47.5805 47.0322 47.9028 48.1538 47.9963C48.8135 48.99 49.3389 50.0666 49.7163 51.1981H44.145L44.9494 47.0494ZM52 51.1981C51.6749 50.0322 51.2154 48.9079 50.6306 47.8481C51.412 47.6798 52.1649 47.3989 52.8656 47.0144C52.9456 47.0725 53.0294 47.1244 53.1113 47.18C53.7198 48.4681 54.1968 49.8143 54.535 51.1981H52ZM55.9831 48.4113C56.392 48.5002 56.8069 48.5582 57.2244 48.585C57.2744 48.585 57.3238 48.585 57.3731 48.5894C57.0844 49.1637 56.8169 49.7475 56.5775 50.3438C56.3956 49.6488 56.1931 49 55.9825 48.4113H55.9831ZM52.1838 22.0925C52.3983 22.1003 52.6104 22.046 52.7948 21.9362C52.9792 21.8263 53.1279 21.6655 53.2231 21.4731C53.7553 20.3666 54.6056 19.4442 55.6652 18.8239C56.7248 18.2036 57.9455 17.9137 59.1708 17.9914C60.3962 18.0691 61.5704 18.5107 62.5432 19.2599C63.516 20.009 64.2431 21.0314 64.6313 22.1963C64.6992 22.4001 64.8257 22.5794 64.9951 22.7117C65.1644 22.8439 65.3689 22.9234 65.5831 22.94C66.8792 23.0405 68.0982 23.5955 69.025 24.507C69.9518 25.4186 70.5269 26.6282 70.6488 27.9225C70.6682 28.1233 70.7426 28.3148 70.8639 28.4759C70.9852 28.637 71.1487 28.7615 71.3363 28.8356C72.2213 29.1832 73.0018 29.753 73.6024 30.4902C74.203 31.2273 74.6034 32.1068 74.7651 33.0438C74.9267 33.9808 74.8441 34.9436 74.5252 35.8393C74.2062 36.7351 73.6618 37.5335 72.9444 38.1575C72.7904 38.2919 72.6771 38.4668 72.6175 38.6624C72.5578 38.8579 72.5541 39.0662 72.6069 39.2637C72.7743 39.8951 72.8376 40.5495 72.7944 41.2012C72.7227 42.3541 72.3284 43.4635 71.6565 44.403C70.9846 45.3426 70.0621 46.0743 68.9943 46.5148C67.9266 46.9553 66.7565 47.0868 65.6176 46.8943C64.4787 46.7019 63.4168 46.1932 62.5531 45.4263C62.3712 45.2654 62.1409 45.1698 61.8985 45.1545C61.6562 45.1392 61.4157 45.2051 61.215 45.3419C60.0853 46.1173 58.7283 46.4915 57.3608 46.4048C55.9933 46.318 54.6945 45.7752 53.6719 44.8631C53.4898 44.7023 53.2593 44.6068 53.0169 44.5916C52.7744 44.5764 52.5338 44.6425 52.3331 44.7794C51.3099 45.4777 50.0993 45.8501 48.8605 45.8478C47.6216 45.8455 46.4125 45.4684 45.3919 44.7663L48.8663 26.86C49.0959 25.6631 48.9482 24.4244 48.4438 23.315C49.4958 22.4584 50.8283 22.0228 52.1831 22.0925H52.1838ZM42.8419 11.3619C43.2863 11.6613 43.525 14.3731 41.9631 18.2738C41.8181 18.6413 41.6506 19.0169 41.4713 19.3988C41.0869 19.34 40.7025 19.2825 40.3156 19.2381C40.5283 17.6466 40.6327 16.0425 40.6281 14.4369C40.6281 14.0931 40.6188 13.7563 40.6094 13.42C41.77 11.7769 42.6538 11.3244 42.8419 11.3619ZM36.7044 5.215C37.2613 5.75875 38.25 8.4375 38.4194 13.125C38.4375 13.5538 38.4431 13.995 38.4431 14.4375C38.4484 15.9865 38.3439 17.5339 38.1306 19.0681C37.1806 19.0265 36.2302 19.0265 35.2794 19.0681C35.0664 17.5339 34.9619 15.9865 34.9669 14.4375C34.9669 13.9969 34.9731 13.5556 34.9913 13.12C35.1531 8.43188 36.1456 5.75563 36.7044 5.215ZM31.4456 18.2681C29.8831 14.3631 30.1213 11.6575 30.5525 11.3681C30.75 11.3331 31.6369 11.7806 32.7931 13.4213C32.7838 13.7581 32.7744 14.0956 32.7744 14.4375C32.7698 16.0434 32.8742 17.6477 33.0869 19.2394C32.7025 19.2831 32.32 19.3406 31.9375 19.3994C31.7606 19.0169 31.5931 18.6406 31.4456 18.2681ZM44.0081 22.1331C44.9224 22.3735 45.7112 22.9522 46.215 23.7521C46.7188 24.552 46.9 25.5135 46.7219 26.4419L46.67 26.7119H41.5888C41.2987 26.7119 41.0205 26.8271 40.8154 27.0322C40.6102 27.2373 40.495 27.5155 40.495 27.8056C40.495 28.0957 40.6102 28.3739 40.8154 28.579C41.0205 28.7841 41.2987 28.8994 41.5888 28.8994H46.2431L43.215 44.5075H40.4456C40.1555 44.5075 39.8774 44.6227 39.6722 44.8279C39.4671 45.033 39.3519 45.3112 39.3519 45.6012C39.3519 45.8913 39.4671 46.1695 39.6722 46.3746C39.8774 46.5798 40.1555 46.695 40.4456 46.695H42.7906L41.9156 51.195H31.4888L29.7781 42.3819H33.7956C34.0857 42.3819 34.3639 42.2666 34.569 42.0615C34.7741 41.8564 34.8894 41.5782 34.8894 41.2881C34.8894 40.998 34.7741 40.7198 34.569 40.5147C34.3639 40.3096 34.0857 40.1944 33.7956 40.1944H29.3538L27.7038 31.6875H31.03C31.3201 31.6875 31.5983 31.5723 31.8034 31.3671C32.0085 31.162 32.1238 30.8838 32.1238 30.5938C32.1238 30.3037 32.0085 30.0255 31.8034 29.8204C31.5983 29.6152 31.3201 29.5 31.03 29.5H27.28L26.6875 26.4375C26.6357 26.1773 26.6148 25.912 26.625 25.6469C26.6382 25.0127 26.8141 24.3925 27.1359 23.8459C27.4576 23.2992 27.9145 22.8444 28.4625 22.525C28.756 22.3496 29.0735 22.2178 29.405 22.1338C34.194 20.9023 39.2166 20.9021 44.0056 22.1331H44.0081ZM18.4894 51.1956L18.7206 49.525C20.577 47.9678 22.5874 46.6041 24.7206 45.455C24.85 45.3885 24.9647 45.2968 25.0582 45.1854C25.1517 45.074 25.222 44.9451 25.2651 44.8062C25.3081 44.6673 25.3231 44.5212 25.309 44.3764C25.2949 44.2317 25.2521 44.0912 25.1831 43.9632C25.114 43.8352 25.0202 43.7222 24.907 43.6309C24.7937 43.5396 24.6635 43.4719 24.5237 43.4315C24.384 43.3912 24.2376 43.3791 24.0932 43.396C23.9488 43.4129 23.8091 43.4585 23.6825 43.53C22.1083 44.3803 20.5949 45.3386 19.1531 46.3981L19.5719 43.3756C21.4282 41.8187 23.4386 40.4553 25.5719 39.3069C25.8272 39.1692 26.0174 38.9357 26.1007 38.6578C26.1839 38.3799 26.1533 38.0804 26.0156 37.825C25.878 37.5696 25.6445 37.3794 25.3666 37.2962C25.0887 37.213 24.7891 37.2436 24.5338 37.3813C22.9582 38.2318 21.4433 39.1903 20 40.25L20.4188 37.2269C22.1002 35.8157 23.9095 34.5642 25.8231 33.4888L28.5069 47.3244C28.1481 47.6877 27.7366 47.9949 27.2863 48.2356C27.091 48.3403 26.9322 48.5019 26.831 48.6989C26.7297 48.8959 26.6908 49.1191 26.7194 49.3388C26.8114 49.955 26.8074 50.5818 26.7075 51.1969L18.4894 51.1956ZM28.9619 49.7775C28.97 49.7725 28.9763 49.7656 28.9844 49.76L29.2625 51.1975H28.9188C28.9747 50.7272 28.9883 50.2528 28.9594 49.78L28.9619 49.7775ZM8.56125 49.9281C8.23563 49.1894 8.35 48.1612 8.90125 46.8706C8.98857 46.6667 9.01173 46.4411 8.96762 46.2237C8.92352 46.0063 8.81426 45.8075 8.65438 45.6537C8.19096 45.2298 7.81875 44.716 7.56043 44.1435C7.30211 43.571 7.1631 42.9519 7.15187 42.3239C7.14064 41.696 7.25743 41.0723 7.49512 40.4909C7.73281 39.9096 8.08641 39.3827 8.53438 38.9425C8.64817 38.822 8.73309 38.6772 8.7827 38.519C8.83232 38.3608 8.84534 38.1935 8.82077 38.0295C8.79621 37.8656 8.73471 37.7094 8.64092 37.5727C8.54713 37.4361 8.4235 37.3225 8.27938 37.2406C7.86261 36.9214 7.53112 36.5043 7.31437 36.0262C7.09761 35.548 7.00229 35.0238 7.03688 34.5C7.05483 33.8922 7.24971 33.3029 7.59763 32.8042C7.94555 32.3055 8.4314 31.9192 8.99563 31.6925C9.1936 31.598 9.35859 31.4462 9.46916 31.2567C9.57972 31.0672 9.63076 30.8489 9.61563 30.63C9.48188 28.7719 9.92125 27.1769 10.79 26.3638C11.1666 26.0507 11.6107 25.8293 12.0873 25.7171C12.564 25.6048 13.0602 25.6048 13.5369 25.7169C13.6999 25.7393 13.8659 25.7247 14.0226 25.6742C14.1792 25.6236 14.3224 25.5383 14.4415 25.4247C14.5606 25.3111 14.6526 25.1722 14.7105 25.0181C14.7685 24.8641 14.791 24.6989 14.7763 24.535C14.7602 23.6553 14.9294 22.782 15.2729 21.972C15.6164 21.1619 16.1265 20.4332 16.77 19.8331C17.4508 19.1926 18.2723 18.7206 19.1685 18.455C20.0647 18.1894 21.0108 18.1376 21.9306 18.3037C22.8752 18.39 23.7852 18.7025 24.5835 19.2146C25.3819 19.7268 26.0453 20.4236 26.5175 21.2463C25.8846 21.782 25.3721 22.4455 25.0137 23.1933C24.6552 23.941 24.4589 24.7561 24.4375 25.585C24.4214 26.0118 24.4552 26.4391 24.5381 26.8581L25.3869 31.2331H25.3819C23.8079 32.083 22.2947 33.0409 20.8531 34.1L21.7906 27.3412C21.8302 27.054 21.7541 26.7628 21.579 26.5316C21.4039 26.3005 21.1441 26.1484 20.8569 26.1087C20.5696 26.0691 20.2784 26.1453 20.0472 26.3204C19.8161 26.4955 19.664 26.7552 19.6244 27.0425L18.6875 33.8044C17.5867 32.3927 16.3894 31.0589 15.1044 29.8125C14.8956 29.613 14.6163 29.5042 14.3276 29.5098C14.0389 29.5154 13.7641 29.635 13.5632 29.8424C13.3623 30.0498 13.2516 30.3283 13.2552 30.6171C13.2588 30.9058 13.3765 31.1814 13.5825 31.3838C15.3242 33.0695 16.8892 34.9288 18.2531 36.9325L17.835 39.9531C16.7349 38.5415 15.5383 37.2079 14.2538 35.9619C14.0449 35.7624 13.7657 35.6536 13.477 35.6592C13.1883 35.6648 12.9135 35.7843 12.7126 35.9918C12.5117 36.1992 12.4009 36.4777 12.4046 36.7664C12.4082 37.0552 12.5258 37.3308 12.7319 37.5331C14.4735 39.2185 16.0385 41.0773 17.4025 43.0806L16.9838 46.1019C15.8835 44.6906 14.6869 43.3573 13.4025 42.1112C13.1937 41.9118 12.9145 41.803 12.6257 41.8086C12.337 41.8142 12.0622 41.9337 11.8613 42.1412C11.6604 42.3486 11.5497 42.627 11.5533 42.9158C11.5569 43.2046 11.6746 43.4802 11.8806 43.6825C13.6224 45.3675 15.1874 47.2262 16.5513 49.2294L16.2781 51.1987H10.0944C9.76707 51.0999 9.46272 50.9368 9.19907 50.7191C8.93542 50.5014 8.71775 50.2333 8.55875 49.9306L8.56125 49.9281ZM74.8456 53.3831V59.0769H5.15563V53.3831H74.8456ZM5.15563 74.8438V69.1494H74.8431V74.8438H5.15563Z" fill="#8673FF"/>
</svg>
