<svg width="80" height="80" viewBox="0 0 80 80" fill="none" xmlns="http://www.w3.org/2000/svg">
<g clip-path="url(#clip0)">
<path d="M34.6908 21.7192H23.2742C22.4112 21.7192 21.7117 21.0197 21.7117 20.1567C21.7117 19.2938 22.4112 18.5942 23.2742 18.5942H34.6908C35.5537 18.5942 36.2533 19.2938 36.2533 20.1567C36.2533 21.0197 35.5536 21.7192 34.6908 21.7192Z" fill="#8673FF"/>
<path d="M34.6908 28.1023H23.2742C22.4112 28.1023 21.7117 27.4028 21.7117 26.5398C21.7117 25.6768 22.4112 24.9773 23.2742 24.9773H34.6908C35.5537 24.9773 36.2533 25.6768 36.2533 26.5398C36.2533 27.4028 35.5536 28.1023 34.6908 28.1023Z" fill="#8673FF"/>
<path d="M57.1648 46.2509C54.2264 46.2509 51.8359 43.8605 51.8359 40.922C51.8359 37.5172 55.5853 33.3259 56.0127 32.8592C56.3083 32.5367 56.7255 32.3526 57.163 32.3522H57.1648C57.6017 32.3522 58.0186 32.535 58.3145 32.8565C58.7424 33.3212 62.4938 37.4961 62.4938 40.922C62.4938 43.8603 60.1033 46.2509 57.1648 46.2509ZM57.1669 36.3701C56.0659 37.84 54.9609 39.7067 54.9609 40.9219C54.9609 42.137 55.9497 43.1258 57.1648 43.1258C58.38 43.1258 59.3688 42.137 59.3688 40.9219C59.3688 39.6984 58.2664 37.8353 57.1669 36.3701Z" fill="#8673FF"/>
<path d="M60.7244 17.0373H53.6055C53.2056 17.0373 52.8408 17.1876 52.5645 17.4346L43.0695 12.1446C42.8692 12.0288 42.6406 11.9563 42.3969 11.9398L4.25109 11.936C1.90703 11.936 0 13.8429 0 16.187V30.5095C0 32.8535 1.90703 34.7606 4.25109 34.7606H42.2891C42.3009 34.7606 42.4347 34.7537 42.4373 34.7535C42.6664 34.732 42.8811 34.661 43.0705 34.5515L52.5645 29.262C52.8409 29.509 53.2056 29.6593 53.6055 29.6593H60.7244C61.5873 29.6593 62.2869 28.9598 62.2869 28.0968V18.5998C62.2869 17.7368 61.5873 17.0373 60.7244 17.0373ZM4.25109 31.6356C3.63016 31.6356 3.125 31.1304 3.125 30.5095V16.187C3.125 15.566 3.63016 15.0609 4.25109 15.0609H14.1133V31.6354H4.25109V31.6356ZM17.2383 31.6356V15.061H40.7266V31.6356H17.2383ZM43.8516 16.1576L52.043 20.7213V25.9751L43.8516 30.5388V16.1576ZM59.1619 26.5343H55.168V20.1623H59.1619V26.5343Z" fill="#8673FF"/>
<path d="M55.5562 68.0638C54.9028 68.0638 54.3067 67.6405 54.0867 67.0269C53.8695 66.4216 54.0555 65.7269 54.5455 65.3102C55.0566 64.8757 55.8109 64.8191 56.3808 65.1738C56.927 65.5138 57.2151 66.1744 57.0891 66.806C56.945 67.5269 56.2919 68.0638 55.5562 68.0638Z" fill="#8673FF"/>
<path d="M78.4375 49.1495H26.5372V46.8896C26.5372 46.0267 25.8377 45.3271 24.9747 45.3271H5.59578C2.51031 45.3271 0 47.8375 0 50.9229V50.9764C0 54.062 2.51031 56.5722 5.59578 56.5722H24.9747C25.8377 56.5722 26.5372 55.8726 26.5372 55.0097V52.2745H29.4934V56.9547C29.4934 63.0401 34.4125 67.9986 40.483 68.0631C40.4978 68.0634 40.5128 68.0637 40.5278 68.0637H48.4644C49.3273 68.0637 50.0269 67.3642 50.0269 66.5012C50.0269 65.6383 49.3273 64.9387 48.4644 64.9387H40.6023C36.2 64.9387 32.6183 61.3572 32.6183 56.9547V52.2745H76.875V56.9547C76.875 61.357 73.2934 64.9387 68.8909 64.9387H62.5916C61.7286 64.9387 61.0291 65.6383 61.0291 66.5012C61.0291 67.3642 61.7286 68.0637 62.5916 68.0637H68.9655C68.9805 68.0637 68.9955 68.0636 69.0103 68.0631C75.0809 67.9986 80 63.0401 80 56.9547V50.712C80 49.849 79.3005 49.1495 78.4375 49.1495ZM3.125 50.9764V50.9229C3.125 49.5606 4.23344 48.4521 5.59578 48.4521H15.0562V53.4472H5.59578C4.23344 53.4473 3.125 52.3389 3.125 50.9764ZM23.4122 53.4473H18.1812V48.4523H23.4122V53.4473Z" fill="#8673FF"/>
<path d="M73.6 4.80005L1.60002 76.8001" stroke="#8673FF"/>
<path d="M0.5 3.64648L68 77" stroke="#8673FF"/>
</g>
<defs>
<clipPath id="clip0">
<rect width="80" height="80" fill="white"/>
</clipPath>
</defs>
</svg>
