<svg width="15" height="15" viewBox="0 0 15 15" fill="none" xmlns="http://www.w3.org/2000/svg">
<path d="M6.21129 8.78866C4.77956 7.35694 4.45629 5.92522 4.38336 5.35159C4.36298 5.19299 4.41756 5.03393 4.53103 4.92125L5.68965 3.76315C5.86008 3.59282 5.89033 3.32736 5.76258 3.12306L3.91784 0.258578C3.77651 0.032349 3.48631 -0.0492992 3.24775 0.0700433L0.286286 1.46478C0.0933703 1.55978 -0.0201001 1.76475 0.00180335 1.97866C0.156976 3.4528 0.799648 7.07659 4.36086 10.6381C7.92206 14.1995 11.5453 14.8419 13.0203 14.9971C13.2342 15.019 13.4391 14.9055 13.5341 14.7126L14.9289 11.7512C15.0478 11.5131 14.9667 11.2237 14.7414 11.0821L11.8769 9.23789C11.6727 9.11 11.4073 9.14003 11.2368 9.3103L10.0787 10.4689C9.96602 10.5824 9.80696 10.637 9.64836 10.6166C9.07473 10.5437 7.64301 10.2204 6.21129 8.78866Z" fill="black"/>
<path d="M11.8966 8.01722C11.6109 8.01722 11.3793 7.78564 11.3793 7.49998C11.3769 5.3585 9.64148 3.62309 7.5 3.62066C7.21433 3.62066 6.98276 3.38909 6.98276 3.10342C6.98276 2.81776 7.21433 2.58618 7.5 2.58618C10.2126 2.58917 12.4108 4.7874 12.4138 7.49998C12.4138 7.78564 12.1822 8.01722 11.8966 8.01722Z" fill="black"/>
<path d="M14.4828 8.01724C14.1971 8.01724 13.9655 7.78566 13.9655 7.5C13.9615 3.93085 11.0692 1.03847 7.5 1.03448C7.21433 1.03448 6.98276 0.802906 6.98276 0.517241C6.98276 0.231577 7.21433 0 7.5 0C11.6402 0.004561 14.9954 3.35975 15 7.5C15 7.63718 14.9455 7.76874 14.8485 7.86574C14.7515 7.96275 14.6199 8.01724 14.4828 8.01724Z" fill="black"/>
</svg>
