<svg width="17" height="17" viewBox="0 0 17 17" fill="none" xmlns="http://www.w3.org/2000/svg">
<g clip-path="url(#clip0)">
<path d="M16.15 7.65H9.35005V0.849948C9.35005 0.38085 8.9692 0 8.49995 0C8.03085 0 7.65 0.38085 7.65 0.849948V7.65H0.849948C0.38085 7.65 0 8.03085 0 8.49995C0 8.9692 0.38085 9.35005 0.849948 9.35005H7.65V16.15C7.65 16.6192 8.03085 17.0001 8.49995 17.0001C8.9692 17.0001 9.35005 16.6192 9.35005 16.15V9.35005H16.15C16.6192 9.35005 17.0001 8.9692 17.0001 8.49995C17.0001 8.03085 16.6192 7.65 16.15 7.65Z" fill="black"/>
</g>
<defs>
<clipPath id="clip0">
<rect width="17" height="17" fill="white"/>
</clipPath>
</defs>
</svg>
